{
  "title" : "",
  "description" : "",
  "author" : "",
  "targetLoudness" : -18.0,
  "shouldApplyLoudnessNormalization" : true,
  "videoFormatFrameRate" : 30,
  "audioFormatSampleRate" : 44100,
  "width" : 960.0,
  "height" : 540.0,
  "version" : "5.0",
  "editRate" : 30,
  "authoringClientName" :  {
    "name" : "Camtasia",
    "platform" : "Windows",
    "version" : "21.0"
  },
  "sourceBin" : [
    {
      "id" : 1,
      "src" : "Rec 2021-07-15.trec",
      "rect" : [0, 0, 960, 540],
      "lastMod" : "20210714T171149",
      "loudnessNormalization" : true,
      "sourceTracks" : [
        {
          "range" : [0, 383],
          "type" : 0,
          "editRate" : 30,
          "trackRect" : [0, 0, 960, 540],
          "sampleRate" : 30,
          "bitDepth" : 0,
          "numChannels" : 0,
          "integratedLUFS" : 100.0,
          "peakLevel" : -1.0,
          "metaData" : "2b7b6a00-7a1f-11e2-83d0-0017f200be7f;2b7b6aef-7a1f-11e2-83d0-0017f200be7f;2b7b6af0-7a1f-11e2-83d0-0017f200be7f;2b7b6af1-7a1f-11e2-83d0-0017f200be7f;2b7b6af2-7a1f-11e2-83d0-0017f200be7f;2b7b6af3-7a1f-11e2-83d0-0017f200be7f;2b7b6af5-7a1f-11e2-83d0-0017f200be7f;2b7b6af6-7a1f-11e2-83d0-0017f200be7f;2b7b6af7-7a1f-11e2-83d0-0017f200be7f;2b7b6af8-7a1f-11e2-83d0-0017f200be7f;2b7b6af9-7a1f-11e2-83d0-0017f200be7f;2b7b6afa-7a1f-11e2-83d0-0017f200be7f;"
        }
      ],
      "metadata" : {
        "timeAdded" : "20210714T171149.883997"
      }
    },
    {
      "id" : 2,
      "src" : "Rec 2021-07-15(1).trec",
      "rect" : [0, 0, 960, 540],
      "lastMod" : "20210714T171255",
      "loudnessNormalization" : true,
      "sourceTracks" : [
        {
          "range" : [0, 475],
          "type" : 0,
          "editRate" : 30,
          "trackRect" : [0, 0, 960, 540],
          "sampleRate" : 30,
          "bitDepth" : 0,
          "numChannels" : 0,
          "integratedLUFS" : 100.0,
          "peakLevel" : -1.0,
          "metaData" : "2b7b6a00-7a1f-11e2-83d0-0017f200be7f;2b7b6aef-7a1f-11e2-83d0-0017f200be7f;2b7b6af0-7a1f-11e2-83d0-0017f200be7f;2b7b6af1-7a1f-11e2-83d0-0017f200be7f;2b7b6af2-7a1f-11e2-83d0-0017f200be7f;2b7b6af3-7a1f-11e2-83d0-0017f200be7f;2b7b6af5-7a1f-11e2-83d0-0017f200be7f;2b7b6af6-7a1f-11e2-83d0-0017f200be7f;2b7b6af7-7a1f-11e2-83d0-0017f200be7f;2b7b6af8-7a1f-11e2-83d0-0017f200be7f;2b7b6af9-7a1f-11e2-83d0-0017f200be7f;2b7b6afa-7a1f-11e2-83d0-0017f200be7f;"
        }
      ],
      "metadata" : {
        "timeAdded" : "20210714T171255.769838"
      }
    },
    {
      "id" : 3,
      "src" : "Rec 2021-07-15(2).trec",
      "rect" : [0, 0, 960, 540],
      "lastMod" : "20210714T171556",
      "loudnessNormalization" : true,
      "sourceTracks" : [
        {
          "range" : [0, 431],
          "type" : 0,
          "editRate" : 30,
          "trackRect" : [0, 0, 960, 540],
          "sampleRate" : 30,
          "bitDepth" : 0,
          "numChannels" : 0,
          "integratedLUFS" : 100.0,
          "peakLevel" : -1.0,
          "metaData" : "2b7b6a00-7a1f-11e2-83d0-0017f200be7f;2b7b6aef-7a1f-11e2-83d0-0017f200be7f;2b7b6af0-7a1f-11e2-83d0-0017f200be7f;2b7b6af1-7a1f-11e2-83d0-0017f200be7f;2b7b6af2-7a1f-11e2-83d0-0017f200be7f;2b7b6af3-7a1f-11e2-83d0-0017f200be7f;2b7b6af5-7a1f-11e2-83d0-0017f200be7f;2b7b6af6-7a1f-11e2-83d0-0017f200be7f;2b7b6af7-7a1f-11e2-83d0-0017f200be7f;2b7b6af8-7a1f-11e2-83d0-0017f200be7f;2b7b6af9-7a1f-11e2-83d0-0017f200be7f;2b7b6afa-7a1f-11e2-83d0-0017f200be7f;"
        }
      ],
      "metadata" : {
        "timeAdded" : "20210714T171557.211793"
      }
    },
    {
      "id" : 4,
      "src" : "Rec 2021-07-15(3).trec",
      "rect" : [0, 0, 960, 540],
      "lastMod" : "20210714T171700",
      "loudnessNormalization" : true,
      "sourceTracks" : [
        {
          "range" : [0, 325],
          "type" : 0,
          "editRate" : 30,
          "trackRect" : [0, 0, 960, 540],
          "sampleRate" : 30,
          "bitDepth" : 0,
          "numChannels" : 0,
          "integratedLUFS" : 100.0,
          "peakLevel" : -1.0,
          "metaData" : "2b7b6a00-7a1f-11e2-83d0-0017f200be7f;2b7b6aef-7a1f-11e2-83d0-0017f200be7f;2b7b6af0-7a1f-11e2-83d0-0017f200be7f;2b7b6af1-7a1f-11e2-83d0-0017f200be7f;2b7b6af2-7a1f-11e2-83d0-0017f200be7f;2b7b6af3-7a1f-11e2-83d0-0017f200be7f;2b7b6af5-7a1f-11e2-83d0-0017f200be7f;2b7b6af6-7a1f-11e2-83d0-0017f200be7f;2b7b6af7-7a1f-11e2-83d0-0017f200be7f;2b7b6af8-7a1f-11e2-83d0-0017f200be7f;2b7b6af9-7a1f-11e2-83d0-0017f200be7f;2b7b6afa-7a1f-11e2-83d0-0017f200be7f;"
        }
      ],
      "metadata" : {
        "timeAdded" : "20210714T171701.208879"
      }
    },
    {
      "id" : 5,
      "src" : "Rec 2021-07-15(4).trec",
      "rect" : [0, 0, 960, 540],
      "lastMod" : "20210714T172118",
      "loudnessNormalization" : true,
      "sourceTracks" : [
        {
          "range" : [0, 359],
          "type" : 0,
          "editRate" : 30,
          "trackRect" : [0, 0, 960, 540],
          "sampleRate" : 30,
          "bitDepth" : 0,
          "numChannels" : 0,
          "integratedLUFS" : 100.0,
          "peakLevel" : -1.0,
          "metaData" : "2b7b6a00-7a1f-11e2-83d0-0017f200be7f;2b7b6aef-7a1f-11e2-83d0-0017f200be7f;2b7b6af0-7a1f-11e2-83d0-0017f200be7f;2b7b6af1-7a1f-11e2-83d0-0017f200be7f;2b7b6af2-7a1f-11e2-83d0-0017f200be7f;2b7b6af3-7a1f-11e2-83d0-0017f200be7f;2b7b6af5-7a1f-11e2-83d0-0017f200be7f;2b7b6af6-7a1f-11e2-83d0-0017f200be7f;2b7b6af7-7a1f-11e2-83d0-0017f200be7f;2b7b6af8-7a1f-11e2-83d0-0017f200be7f;2b7b6af9-7a1f-11e2-83d0-0017f200be7f;2b7b6afa-7a1f-11e2-83d0-0017f200be7f;"
        }
      ],
      "metadata" : {
        "timeAdded" : "20210714T172118.720003"
      }
    },
    {
      "id" : 6,
      "src" : "Rec 2021-07-15(5).trec",
      "rect" : [0, 0, 960, 540],
      "lastMod" : "20210714T172347",
      "loudnessNormalization" : true,
      "sourceTracks" : [
        {
          "range" : [0, 388],
          "type" : 0,
          "editRate" : 30,
          "trackRect" : [0, 0, 960, 540],
          "sampleRate" : 30,
          "bitDepth" : 0,
          "numChannels" : 0,
          "integratedLUFS" : 100.0,
          "peakLevel" : -1.0,
          "metaData" : "2b7b6a00-7a1f-11e2-83d0-0017f200be7f;2b7b6aef-7a1f-11e2-83d0-0017f200be7f;2b7b6af0-7a1f-11e2-83d0-0017f200be7f;2b7b6af1-7a1f-11e2-83d0-0017f200be7f;2b7b6af2-7a1f-11e2-83d0-0017f200be7f;2b7b6af3-7a1f-11e2-83d0-0017f200be7f;2b7b6af5-7a1f-11e2-83d0-0017f200be7f;2b7b6af6-7a1f-11e2-83d0-0017f200be7f;2b7b6af7-7a1f-11e2-83d0-0017f200be7f;2b7b6af8-7a1f-11e2-83d0-0017f200be7f;2b7b6af9-7a1f-11e2-83d0-0017f200be7f;2b7b6afa-7a1f-11e2-83d0-0017f200be7f;"
        }
      ],
      "metadata" : {
        "timeAdded" : "20210714T172347.666772"
      }
    },
    {
      "id" : 7,
      "src" : "Rec 2021-07-15(6).trec",
      "rect" : [0, 0, 960, 540],
      "lastMod" : "20210714T172508",
      "loudnessNormalization" : true,
      "sourceTracks" : [
        {
          "range" : [0, 327],
          "type" : 0,
          "editRate" : 30,
          "trackRect" : [0, 0, 960, 540],
          "sampleRate" : 30,
          "bitDepth" : 0,
          "numChannels" : 0,
          "integratedLUFS" : 100.0,
          "peakLevel" : -1.0,
          "metaData" : "2b7b6a00-7a1f-11e2-83d0-0017f200be7f;2b7b6aef-7a1f-11e2-83d0-0017f200be7f;2b7b6af0-7a1f-11e2-83d0-0017f200be7f;2b7b6af1-7a1f-11e2-83d0-0017f200be7f;2b7b6af2-7a1f-11e2-83d0-0017f200be7f;2b7b6af3-7a1f-11e2-83d0-0017f200be7f;2b7b6af5-7a1f-11e2-83d0-0017f200be7f;2b7b6af6-7a1f-11e2-83d0-0017f200be7f;2b7b6af7-7a1f-11e2-83d0-0017f200be7f;2b7b6af8-7a1f-11e2-83d0-0017f200be7f;2b7b6af9-7a1f-11e2-83d0-0017f200be7f;2b7b6afa-7a1f-11e2-83d0-0017f200be7f;"
        }
      ],
      "metadata" : {
        "timeAdded" : "20210714T172509.191474"
      }
    },
    {
      "id" : 8,
      "src" : "Rec 2021-07-15(7).trec",
      "rect" : [0, 0, 960, 540],
      "lastMod" : "20210714T172630",
      "loudnessNormalization" : true,
      "sourceTracks" : [
        {
          "range" : [0, 225],
          "type" : 0,
          "editRate" : 30,
          "trackRect" : [0, 0, 960, 540],
          "sampleRate" : 30,
          "bitDepth" : 0,
          "numChannels" : 0,
          "integratedLUFS" : 100.0,
          "peakLevel" : -1.0,
          "metaData" : "2b7b6a00-7a1f-11e2-83d0-0017f200be7f;2b7b6aef-7a1f-11e2-83d0-0017f200be7f;2b7b6af0-7a1f-11e2-83d0-0017f200be7f;2b7b6af1-7a1f-11e2-83d0-0017f200be7f;2b7b6af2-7a1f-11e2-83d0-0017f200be7f;2b7b6af3-7a1f-11e2-83d0-0017f200be7f;2b7b6af5-7a1f-11e2-83d0-0017f200be7f;2b7b6af6-7a1f-11e2-83d0-0017f200be7f;2b7b6af7-7a1f-11e2-83d0-0017f200be7f;2b7b6af8-7a1f-11e2-83d0-0017f200be7f;2b7b6af9-7a1f-11e2-83d0-0017f200be7f;2b7b6afa-7a1f-11e2-83d0-0017f200be7f;"
        }
      ],
      "metadata" : {
        "timeAdded" : "20210714T172631.006258"
      }
    },
    {
      "id" : 9,
      "src" : "Rec 2021-07-15(8).trec",
      "rect" : [0, 0, 960, 540],
      "lastMod" : "20210714T173204",
      "loudnessNormalization" : true,
      "sourceTracks" : [
        {
          "range" : [0, 441],
          "type" : 0,
          "editRate" : 30,
          "trackRect" : [0, 0, 960, 540],
          "sampleRate" : 30,
          "bitDepth" : 0,
          "numChannels" : 0,
          "integratedLUFS" : 100.0,
          "peakLevel" : -1.0,
          "metaData" : "2b7b6a00-7a1f-11e2-83d0-0017f200be7f;2b7b6aef-7a1f-11e2-83d0-0017f200be7f;2b7b6af0-7a1f-11e2-83d0-0017f200be7f;2b7b6af1-7a1f-11e2-83d0-0017f200be7f;2b7b6af2-7a1f-11e2-83d0-0017f200be7f;2b7b6af3-7a1f-11e2-83d0-0017f200be7f;2b7b6af5-7a1f-11e2-83d0-0017f200be7f;2b7b6af6-7a1f-11e2-83d0-0017f200be7f;2b7b6af7-7a1f-11e2-83d0-0017f200be7f;2b7b6af8-7a1f-11e2-83d0-0017f200be7f;2b7b6af9-7a1f-11e2-83d0-0017f200be7f;2b7b6afa-7a1f-11e2-83d0-0017f200be7f;"
        }
      ],
      "metadata" : {
        "timeAdded" : "20210714T173205.176530"
      }
    },
    {
      "id" : 10,
      "src" : "Rec 2021-07-15(9).trec",
      "rect" : [0, 0, 960, 540],
      "lastMod" : "20210714T181433",
      "loudnessNormalization" : true,
      "sourceTracks" : [
        {
          "range" : [0, 449],
          "type" : 0,
          "editRate" : 30,
          "trackRect" : [0, 0, 960, 540],
          "sampleRate" : 30,
          "bitDepth" : 0,
          "numChannels" : 0,
          "integratedLUFS" : 100.0,
          "peakLevel" : -1.0,
          "metaData" : "2b7b6a00-7a1f-11e2-83d0-0017f200be7f;2b7b6aef-7a1f-11e2-83d0-0017f200be7f;2b7b6af0-7a1f-11e2-83d0-0017f200be7f;2b7b6af1-7a1f-11e2-83d0-0017f200be7f;2b7b6af2-7a1f-11e2-83d0-0017f200be7f;2b7b6af3-7a1f-11e2-83d0-0017f200be7f;2b7b6af5-7a1f-11e2-83d0-0017f200be7f;2b7b6af6-7a1f-11e2-83d0-0017f200be7f;2b7b6af7-7a1f-11e2-83d0-0017f200be7f;2b7b6af8-7a1f-11e2-83d0-0017f200be7f;2b7b6af9-7a1f-11e2-83d0-0017f200be7f;2b7b6afa-7a1f-11e2-83d0-0017f200be7f;"
        }
      ],
      "metadata" : {
        "timeAdded" : "20210714T181433.690124"
      }
    },
    {
      "id" : 11,
      "src" : "Rec 2021-07-16(1).trec",
      "rect" : [0, 0, 960, 540],
      "lastMod" : "20210716T125659",
      "loudnessNormalization" : true,
      "sourceTracks" : [
        {
          "range" : [0, 353],
          "type" : 0,
          "editRate" : 30,
          "trackRect" : [0, 0, 960, 540],
          "sampleRate" : 30,
          "bitDepth" : 0,
          "numChannels" : 0,
          "integratedLUFS" : 100.0,
          "peakLevel" : -1.0,
          "metaData" : "2b7b6a00-7a1f-11e2-83d0-0017f200be7f;2b7b6aef-7a1f-11e2-83d0-0017f200be7f;2b7b6af0-7a1f-11e2-83d0-0017f200be7f;2b7b6af1-7a1f-11e2-83d0-0017f200be7f;2b7b6af2-7a1f-11e2-83d0-0017f200be7f;2b7b6af3-7a1f-11e2-83d0-0017f200be7f;2b7b6af5-7a1f-11e2-83d0-0017f200be7f;2b7b6af6-7a1f-11e2-83d0-0017f200be7f;2b7b6af7-7a1f-11e2-83d0-0017f200be7f;2b7b6af8-7a1f-11e2-83d0-0017f200be7f;2b7b6af9-7a1f-11e2-83d0-0017f200be7f;2b7b6afa-7a1f-11e2-83d0-0017f200be7f;"
        }
      ],
      "metadata" : {
        "timeAdded" : "20210716T160236.781120"
      }
    },
    {
      "id" : 12,
      "src" : "Rec 2021-07-16(2).trec",
      "rect" : [0, 0, 960, 540],
      "lastMod" : "20210716T130139",
      "loudnessNormalization" : true,
      "sourceTracks" : [
        {
          "range" : [0, 416],
          "type" : 0,
          "editRate" : 30,
          "trackRect" : [0, 0, 960, 540],
          "sampleRate" : 30,
          "bitDepth" : 0,
          "numChannels" : 0,
          "integratedLUFS" : 100.0,
          "peakLevel" : -1.0,
          "metaData" : "2b7b6a00-7a1f-11e2-83d0-0017f200be7f;2b7b6aef-7a1f-11e2-83d0-0017f200be7f;2b7b6af0-7a1f-11e2-83d0-0017f200be7f;2b7b6af1-7a1f-11e2-83d0-0017f200be7f;2b7b6af2-7a1f-11e2-83d0-0017f200be7f;2b7b6af3-7a1f-11e2-83d0-0017f200be7f;2b7b6af5-7a1f-11e2-83d0-0017f200be7f;2b7b6af6-7a1f-11e2-83d0-0017f200be7f;2b7b6af7-7a1f-11e2-83d0-0017f200be7f;2b7b6af8-7a1f-11e2-83d0-0017f200be7f;2b7b6af9-7a1f-11e2-83d0-0017f200be7f;2b7b6afa-7a1f-11e2-83d0-0017f200be7f;"
        }
      ],
      "metadata" : {
        "timeAdded" : "20210716T160236.784117"
      }
    },
    {
      "id" : 13,
      "src" : "Rec 2021-07-16.trec",
      "rect" : [0, 0, 960, 540],
      "lastMod" : "20210716T125324",
      "loudnessNormalization" : true,
      "sourceTracks" : [
        {
          "range" : [0, 633],
          "type" : 0,
          "editRate" : 30,
          "trackRect" : [0, 0, 960, 540],
          "sampleRate" : 29,
          "bitDepth" : 0,
          "numChannels" : 0,
          "integratedLUFS" : 100.0,
          "peakLevel" : -1.0,
          "metaData" : "2b7b6a00-7a1f-11e2-83d0-0017f200be7f;2b7b6aef-7a1f-11e2-83d0-0017f200be7f;2b7b6af0-7a1f-11e2-83d0-0017f200be7f;2b7b6af1-7a1f-11e2-83d0-0017f200be7f;2b7b6af2-7a1f-11e2-83d0-0017f200be7f;2b7b6af3-7a1f-11e2-83d0-0017f200be7f;2b7b6af5-7a1f-11e2-83d0-0017f200be7f;2b7b6af6-7a1f-11e2-83d0-0017f200be7f;2b7b6af7-7a1f-11e2-83d0-0017f200be7f;2b7b6af8-7a1f-11e2-83d0-0017f200be7f;2b7b6af9-7a1f-11e2-83d0-0017f200be7f;2b7b6afa-7a1f-11e2-83d0-0017f200be7f;"
        }
      ],
      "metadata" : {
        "timeAdded" : "20210716T160236.788102"
      }
    }
  ],
  "timeline" : {
    "id" : 14,
    "sceneTrack" : {
      "scenes" : [
        {
          "csml" : {
            "tracks" : [
              {
                "trackIndex" : 0,
                "medias" : [
                  {
                    "id" : 15,
                    "_type" : "ScreenVMFile",
                    "src" : 1,
                    "trackNumber" : 0,
                    "attributes" : {
                      "ident" : "Rec 2021-07-15"
                    },
                    "parameters" : {
                      "sourceCrop0" : {
                        "type" : "double",
                        "defaultValue" : 0.0,
                        "interp" : "eioe"
                      },
                      "sourceCrop1" : {
                        "type" : "double",
                        "defaultValue" : 0.0,
                        "interp" : "eioe"
                      },
                      "sourceCrop2" : {
                        "type" : "double",
                        "defaultValue" : 0.0,
                        "interp" : "eioe"
                      },
                      "sourceCrop3" : {
                        "type" : "double",
                        "defaultValue" : 0.0,
                        "interp" : "eioe"
                      },
                      "geometryCrop0" : {
                        "type" : "double",
                        "defaultValue" : 0.0,
                        "interp" : "eioe"
                      },
                      "geometryCrop1" : {
                        "type" : "double",
                        "defaultValue" : 0.0,
                        "interp" : "eioe"
                      },
                      "geometryCrop2" : {
                        "type" : "double",
                        "defaultValue" : 0.0,
                        "interp" : "eioe"
                      },
                      "geometryCrop3" : {
                        "type" : "double",
                        "defaultValue" : 0.0,
                        "interp" : "eioe"
                      },
                      "cursorScale" : {
                        "type" : "double",
                        "defaultValue" : 1.0,
                        "interp" : "linr"
                      },
                      "cursorOpacity" : {
                        "type" : "double",
                        "defaultValue" : 1.0,
                        "interp" : "linr"
                      }
                    },
                    "effects" : [

                    ],
                    "start" : 0,
                    "duration" : 332,
                    "mediaStart" : 28,
                    "mediaDuration" : 332,
                    "scalar" : 1,
                    "metadata" : {
                      "AutoAppliedSmartFocus" : "False",
                      "clipSpeedAttribute" : false
                    },
                    "animationTracks" : {

                    }
                  },
                  {
                    "id" : 16,
                    "_type" : "ScreenVMFile",
                    "src" : 2,
                    "trackNumber" : 0,
                    "attributes" : {
                      "ident" : "Rec 2021-07-15(1)"
                    },
                    "parameters" : {
                      "sourceCrop0" : {
                        "type" : "double",
                        "defaultValue" : 0.0,
                        "interp" : "eioe"
                      },
                      "sourceCrop1" : {
                        "type" : "double",
                        "defaultValue" : 0.0,
                        "interp" : "eioe"
                      },
                      "sourceCrop2" : {
                        "type" : "double",
                        "defaultValue" : 0.0,
                        "interp" : "eioe"
                      },
                      "sourceCrop3" : {
                        "type" : "double",
                        "defaultValue" : 0.0,
                        "interp" : "eioe"
                      },
                      "geometryCrop0" : {
                        "type" : "double",
                        "defaultValue" : 0.0,
                        "interp" : "eioe"
                      },
                      "geometryCrop1" : {
                        "type" : "double",
                        "defaultValue" : 0.0,
                        "interp" : "eioe"
                      },
                      "geometryCrop2" : {
                        "type" : "double",
                        "defaultValue" : 0.0,
                        "interp" : "eioe"
                      },
                      "geometryCrop3" : {
                        "type" : "double",
                        "defaultValue" : 0.0,
                        "interp" : "eioe"
                      },
                      "cursorScale" : {
                        "type" : "double",
                        "defaultValue" : 1.0,
                        "interp" : "linr"
                      },
                      "cursorOpacity" : {
                        "type" : "double",
                        "defaultValue" : 1.0,
                        "interp" : "linr"
                      }
                    },
                    "effects" : [

                    ],
                    "start" : 332,
                    "duration" : 405,
                    "mediaStart" : 59,
                    "mediaDuration" : 405,
                    "scalar" : 1,
                    "metadata" : {
                      "AutoAppliedSmartFocus" : "False",
                      "clipSpeedAttribute" : false
                    },
                    "animationTracks" : {

                    }
                  },
                  {
                    "id" : 17,
                    "_type" : "ScreenVMFile",
                    "src" : 4,
                    "trackNumber" : 0,
                    "attributes" : {
                      "ident" : "Rec 2021-07-15(3)"
                    },
                    "parameters" : {
                      "sourceCrop0" : {
                        "type" : "double",
                        "defaultValue" : 0.0,
                        "interp" : "eioe"
                      },
                      "sourceCrop1" : {
                        "type" : "double",
                        "defaultValue" : 0.0,
                        "interp" : "eioe"
                      },
                      "sourceCrop2" : {
                        "type" : "double",
                        "defaultValue" : 0.0,
                        "interp" : "eioe"
                      },
                      "sourceCrop3" : {
                        "type" : "double",
                        "defaultValue" : 0.0,
                        "interp" : "eioe"
                      },
                      "geometryCrop0" : {
                        "type" : "double",
                        "defaultValue" : 0.0,
                        "interp" : "eioe"
                      },
                      "geometryCrop1" : {
                        "type" : "double",
                        "defaultValue" : 0.0,
                        "interp" : "eioe"
                      },
                      "geometryCrop2" : {
                        "type" : "double",
                        "defaultValue" : 0.0,
                        "interp" : "eioe"
                      },
                      "geometryCrop3" : {
                        "type" : "double",
                        "defaultValue" : 0.0,
                        "interp" : "eioe"
                      },
                      "cursorScale" : {
                        "type" : "double",
                        "defaultValue" : 1.0,
                        "interp" : "linr"
                      },
                      "cursorOpacity" : {
                        "type" : "double",
                        "defaultValue" : 1.0,
                        "interp" : "linr"
                      }
                    },
                    "effects" : [

                    ],
                    "start" : 737,
                    "duration" : 42,
                    "mediaStart" : 59,
                    "mediaDuration" : 42,
                    "scalar" : 1,
                    "metadata" : {
                      "AutoAppliedSmartFocus" : "False",
                      "clipSpeedAttribute" : false
                    },
                    "animationTracks" : {

                    }
                  },
                  {
                    "id" : 18,
                    "_type" : "ScreenVMFile",
                    "src" : 4,
                    "trackNumber" : 0,
                    "attributes" : {
                      "ident" : "Rec 2021-07-15(3)"
                    },
                    "parameters" : {
                      "sourceCrop0" : {
                        "type" : "double",
                        "defaultValue" : 0.0,
                        "interp" : "eioe"
                      },
                      "sourceCrop1" : {
                        "type" : "double",
                        "defaultValue" : 0.0,
                        "interp" : "eioe"
                      },
                      "sourceCrop2" : {
                        "type" : "double",
                        "defaultValue" : 0.0,
                        "interp" : "eioe"
                      },
                      "sourceCrop3" : {
                        "type" : "double",
                        "defaultValue" : 0.0,
                        "interp" : "eioe"
                      },
                      "geometryCrop0" : {
                        "type" : "double",
                        "defaultValue" : 0.0,
                        "interp" : "eioe"
                      },
                      "geometryCrop1" : {
                        "type" : "double",
                        "defaultValue" : 0.0,
                        "interp" : "eioe"
                      },
                      "geometryCrop2" : {
                        "type" : "double",
                        "defaultValue" : 0.0,
                        "interp" : "eioe"
                      },
                      "geometryCrop3" : {
                        "type" : "double",
                        "defaultValue" : 0.0,
                        "interp" : "eioe"
                      },
                      "cursorScale" : {
                        "type" : "double",
                        "defaultValue" : 1.0,
                        "interp" : "linr"
                      },
                      "cursorOpacity" : {
                        "type" : "double",
                        "defaultValue" : 1.0,
                        "interp" : "linr"
                      }
                    },
                    "effects" : [

                    ],
                    "start" : 779,
                    "duration" : 165,
                    "mediaStart" : 130,
                    "mediaDuration" : 165,
                    "scalar" : 1,
                    "metadata" : {
                      "AutoAppliedSmartFocus" : "False",
                      "clipSpeedAttribute" : false
                    },
                    "animationTracks" : {

                    }
                  },
                  {
                    "id" : 19,
                    "_type" : "ScreenVMFile",
                    "src" : 10,
                    "trackNumber" : 0,
                    "attributes" : {
                      "ident" : "Rec 2021-07-15(9)"
                    },
                    "parameters" : {
                      "sourceCrop0" : {
                        "type" : "double",
                        "defaultValue" : 0.0,
                        "interp" : "eioe"
                      },
                      "sourceCrop1" : {
                        "type" : "double",
                        "defaultValue" : 0.0,
                        "interp" : "eioe"
                      },
                      "sourceCrop2" : {
                        "type" : "double",
                        "defaultValue" : 0.0,
                        "interp" : "eioe"
                      },
                      "sourceCrop3" : {
                        "type" : "double",
                        "defaultValue" : 0.0,
                        "interp" : "eioe"
                      },
                      "geometryCrop0" : {
                        "type" : "double",
                        "defaultValue" : 0.0,
                        "interp" : "eioe"
                      },
                      "geometryCrop1" : {
                        "type" : "double",
                        "defaultValue" : 0.0,
                        "interp" : "eioe"
                      },
                      "geometryCrop2" : {
                        "type" : "double",
                        "defaultValue" : 0.0,
                        "interp" : "eioe"
                      },
                      "geometryCrop3" : {
                        "type" : "double",
                        "defaultValue" : 0.0,
                        "interp" : "eioe"
                      },
                      "cursorScale" : {
                        "type" : "double",
                        "defaultValue" : 1.0,
                        "interp" : "linr"
                      },
                      "cursorOpacity" : {
                        "type" : "double",
                        "defaultValue" : 1.0,
                        "interp" : "linr"
                      }
                    },
                    "effects" : [

                    ],
                    "start" : 944,
                    "duration" : 375,
                    "mediaStart" : 46,
                    "mediaDuration" : 375,
                    "scalar" : 1,
                    "metadata" : {
                      "AutoAppliedSmartFocus" : "False",
                      "clipSpeedAttribute" : false
                    },
                    "animationTracks" : {

                    }
                  },
                  {
                    "id" : 20,
                    "_type" : "ScreenVMFile",
                    "src" : 5,
                    "trackNumber" : 0,
                    "attributes" : {
                      "ident" : "Rec 2021-07-15(4)"
                    },
                    "parameters" : {
                      "sourceCrop0" : {
                        "type" : "double",
                        "defaultValue" : 0.0,
                        "interp" : "eioe"
                      },
                      "sourceCrop1" : {
                        "type" : "double",
                        "defaultValue" : 0.0,
                        "interp" : "eioe"
                      },
                      "sourceCrop2" : {
                        "type" : "double",
                        "defaultValue" : 0.0,
                        "interp" : "eioe"
                      },
                      "sourceCrop3" : {
                        "type" : "double",
                        "defaultValue" : 0.0,
                        "interp" : "eioe"
                      },
                      "geometryCrop0" : {
                        "type" : "double",
                        "defaultValue" : 0.0,
                        "interp" : "eioe"
                      },
                      "geometryCrop1" : {
                        "type" : "double",
                        "defaultValue" : 0.0,
                        "interp" : "eioe"
                      },
                      "geometryCrop2" : {
                        "type" : "double",
                        "defaultValue" : 0.0,
                        "interp" : "eioe"
                      },
                      "geometryCrop3" : {
                        "type" : "double",
                        "defaultValue" : 0.0,
                        "interp" : "eioe"
                      },
                      "cursorScale" : {
                        "type" : "double",
                        "defaultValue" : 1.0,
                        "interp" : "linr"
                      },
                      "cursorOpacity" : {
                        "type" : "double",
                        "defaultValue" : 1.0,
                        "interp" : "linr"
                      }
                    },
                    "effects" : [

                    ],
                    "start" : 1319,
                    "duration" : 263,
                    "mediaStart" : 64,
                    "mediaDuration" : 263,
                    "scalar" : 1,
                    "metadata" : {
                      "AutoAppliedSmartFocus" : "False",
                      "clipSpeedAttribute" : false
                    },
                    "animationTracks" : {

                    }
                  },
                  {
                    "id" : 21,
                    "_type" : "ScreenVMFile",
                    "src" : 7,
                    "trackNumber" : 0,
                    "attributes" : {
                      "ident" : "Rec 2021-07-15(6)"
                    },
                    "parameters" : {
                      "sourceCrop0" : {
                        "type" : "double",
                        "defaultValue" : 0.0,
                        "interp" : "eioe"
                      },
                      "sourceCrop1" : {
                        "type" : "double",
                        "defaultValue" : 0.0,
                        "interp" : "eioe"
                      },
                      "sourceCrop2" : {
                        "type" : "double",
                        "defaultValue" : 0.0,
                        "interp" : "eioe"
                      },
                      "sourceCrop3" : {
                        "type" : "double",
                        "defaultValue" : 0.0,
                        "interp" : "eioe"
                      },
                      "geometryCrop0" : {
                        "type" : "double",
                        "defaultValue" : 0.0,
                        "interp" : "eioe"
                      },
                      "geometryCrop1" : {
                        "type" : "double",
                        "defaultValue" : 0.0,
                        "interp" : "eioe"
                      },
                      "geometryCrop2" : {
                        "type" : "double",
                        "defaultValue" : 0.0,
                        "interp" : "eioe"
                      },
                      "geometryCrop3" : {
                        "type" : "double",
                        "defaultValue" : 0.0,
                        "interp" : "eioe"
                      },
                      "cursorScale" : {
                        "type" : "double",
                        "defaultValue" : 1.0,
                        "interp" : "linr"
                      },
                      "cursorOpacity" : {
                        "type" : "double",
                        "defaultValue" : 1.0,
                        "interp" : "linr"
                      }
                    },
                    "effects" : [

                    ],
                    "start" : 1582,
                    "duration" : 152,
                    "mediaStart" : 129,
                    "mediaDuration" : 152,
                    "scalar" : 1,
                    "metadata" : {
                      "AutoAppliedSmartFocus" : "False",
                      "clipSpeedAttribute" : false
                    },
                    "animationTracks" : {

                    }
                  },
                  {
                    "id" : 22,
                    "_type" : "ScreenVMFile",
                    "src" : 13,
                    "trackNumber" : 0,
                    "attributes" : {
                      "ident" : "Rec 2021-07-16"
                    },
                    "parameters" : {
                      "sourceCrop0" : {
                        "type" : "double",
                        "defaultValue" : 0.0,
                        "interp" : "eioe"
                      },
                      "sourceCrop1" : {
                        "type" : "double",
                        "defaultValue" : 0.0,
                        "interp" : "eioe"
                      },
                      "sourceCrop2" : {
                        "type" : "double",
                        "defaultValue" : 0.0,
                        "interp" : "eioe"
                      },
                      "sourceCrop3" : {
                        "type" : "double",
                        "defaultValue" : 0.0,
                        "interp" : "eioe"
                      },
                      "geometryCrop0" : {
                        "type" : "double",
                        "defaultValue" : 0.0,
                        "interp" : "eioe"
                      },
                      "geometryCrop1" : {
                        "type" : "double",
                        "defaultValue" : 0.0,
                        "interp" : "eioe"
                      },
                      "geometryCrop2" : {
                        "type" : "double",
                        "defaultValue" : 0.0,
                        "interp" : "eioe"
                      },
                      "geometryCrop3" : {
                        "type" : "double",
                        "defaultValue" : 0.0,
                        "interp" : "eioe"
                      },
                      "cursorScale" : {
                        "type" : "double",
                        "defaultValue" : 1.0,
                        "interp" : "linr"
                      },
                      "cursorOpacity" : {
                        "type" : "double",
                        "defaultValue" : 1.0,
                        "interp" : "linr"
                      }
                    },
                    "effects" : [

                    ],
                    "start" : 1734,
                    "duration" : 315,
                    "mediaStart" : 60,
                    "mediaDuration" : 315,
                    "scalar" : 1,
                    "metadata" : {
                      "AutoAppliedSmartFocus" : "False",
                      "clipSpeedAttribute" : false
                    },
                    "animationTracks" : {

                    }
                  },
                  {
                    "id" : 23,
                    "_type" : "ScreenVMFile",
                    "src" : 12,
                    "trackNumber" : 0,
                    "attributes" : {
                      "ident" : "Rec 2021-07-16(2)"
                    },
                    "parameters" : {
                      "sourceCrop0" : {
                        "type" : "double",
                        "defaultValue" : 0.0,
                        "interp" : "eioe"
                      },
                      "sourceCrop1" : {
                        "type" : "double",
                        "defaultValue" : 0.0,
                        "interp" : "eioe"
                      },
                      "sourceCrop2" : {
                        "type" : "double",
                        "defaultValue" : 0.0,
                        "interp" : "eioe"
                      },
                      "sourceCrop3" : {
                        "type" : "double",
                        "defaultValue" : 0.0,
                        "interp" : "eioe"
                      },
                      "geometryCrop0" : {
                        "type" : "double",
                        "defaultValue" : 0.0,
                        "interp" : "eioe"
                      },
                      "geometryCrop1" : {
                        "type" : "double",
                        "defaultValue" : 0.0,
                        "interp" : "eioe"
                      },
                      "geometryCrop2" : {
                        "type" : "double",
                        "defaultValue" : 0.0,
                        "interp" : "eioe"
                      },
                      "geometryCrop3" : {
                        "type" : "double",
                        "defaultValue" : 0.0,
                        "interp" : "eioe"
                      },
                      "cursorScale" : {
                        "type" : "double",
                        "defaultValue" : 1.0,
                        "interp" : "linr"
                      },
                      "cursorOpacity" : {
                        "type" : "double",
                        "defaultValue" : 1.0,
                        "interp" : "linr"
                      }
                    },
                    "effects" : [

                    ],
                    "start" : 2049,
                    "duration" : 278,
                    "mediaStart" : 138,
                    "mediaDuration" : 278,
                    "scalar" : 1,
                    "metadata" : {
                      "AutoAppliedSmartFocus" : "False",
                      "clipSpeedAttribute" : false
                    },
                    "animationTracks" : {

                    }
                  },
                  {
                    "id" : 24,
                    "_type" : "ScreenVMFile",
                    "src" : 6,
                    "trackNumber" : 0,
                    "attributes" : {
                      "ident" : "Rec 2021-07-15(5)"
                    },
                    "parameters" : {
                      "sourceCrop0" : {
                        "type" : "double",
                        "defaultValue" : 0.0,
                        "interp" : "eioe"
                      },
                      "sourceCrop1" : {
                        "type" : "double",
                        "defaultValue" : 0.0,
                        "interp" : "eioe"
                      },
                      "sourceCrop2" : {
                        "type" : "double",
                        "defaultValue" : 0.0,
                        "interp" : "eioe"
                      },
                      "sourceCrop3" : {
                        "type" : "double",
                        "defaultValue" : 0.0,
                        "interp" : "eioe"
                      },
                      "geometryCrop0" : {
                        "type" : "double",
                        "defaultValue" : 0.0,
                        "interp" : "eioe"
                      },
                      "geometryCrop1" : {
                        "type" : "double",
                        "defaultValue" : 0.0,
                        "interp" : "eioe"
                      },
                      "geometryCrop2" : {
                        "type" : "double",
                        "defaultValue" : 0.0,
                        "interp" : "eioe"
                      },
                      "geometryCrop3" : {
                        "type" : "double",
                        "defaultValue" : 0.0,
                        "interp" : "eioe"
                      },
                      "cursorScale" : {
                        "type" : "double",
                        "defaultValue" : 1.0,
                        "interp" : "linr"
                      },
                      "cursorOpacity" : {
                        "type" : "double",
                        "defaultValue" : 1.0,
                        "interp" : "linr"
                      }
                    },
                    "effects" : [

                    ],
                    "start" : 2327,
                    "duration" : 287,
                    "mediaStart" : 63,
                    "mediaDuration" : 287,
                    "scalar" : 1,
                    "metadata" : {
                      "AutoAppliedSmartFocus" : "False",
                      "clipSpeedAttribute" : false
                    },
                    "animationTracks" : {

                    }
                  },
                  {
                    "id" : 25,
                    "_type" : "ScreenVMFile",
                    "src" : 9,
                    "trackNumber" : 0,
                    "attributes" : {
                      "ident" : "Rec 2021-07-15(8)"
                    },
                    "parameters" : {
                      "sourceCrop0" : {
                        "type" : "double",
                        "defaultValue" : 0.0,
                        "interp" : "eioe"
                      },
                      "sourceCrop1" : {
                        "type" : "double",
                        "defaultValue" : 0.0,
                        "interp" : "eioe"
                      },
                      "sourceCrop2" : {
                        "type" : "double",
                        "defaultValue" : 0.0,
                        "interp" : "eioe"
                      },
                      "sourceCrop3" : {
                        "type" : "double",
                        "defaultValue" : 0.0,
                        "interp" : "eioe"
                      },
                      "geometryCrop0" : {
                        "type" : "double",
                        "defaultValue" : 0.0,
                        "interp" : "eioe"
                      },
                      "geometryCrop1" : {
                        "type" : "double",
                        "defaultValue" : 0.0,
                        "interp" : "eioe"
                      },
                      "geometryCrop2" : {
                        "type" : "double",
                        "defaultValue" : 0.0,
                        "interp" : "eioe"
                      },
                      "geometryCrop3" : {
                        "type" : "double",
                        "defaultValue" : 0.0,
                        "interp" : "eioe"
                      },
                      "cursorScale" : {
                        "type" : "double",
                        "defaultValue" : 1.0,
                        "interp" : "linr"
                      },
                      "cursorOpacity" : {
                        "type" : "double",
                        "defaultValue" : 1.0,
                        "interp" : "linr"
                      }
                    },
                    "effects" : [

                    ],
                    "start" : 2614,
                    "duration" : 257,
                    "mediaStart" : 127,
                    "mediaDuration" : 257,
                    "scalar" : 1,
                    "metadata" : {
                      "AutoAppliedSmartFocus" : "False",
                      "clipSpeedAttribute" : false
                    },
                    "animationTracks" : {

                    }
                  }
                ]
              },
              {
                "trackIndex" : 1,
                "medias" : [
                  {
                    "id" : 26,
                    "_type" : "Callout",
                    "def" : {
                      "kind" : "remix",
                      "shape" : "text-rectangle",
                      "style" : "basic",
                      "enable-ligatures" : 1.0,
                      "fill-color-blue" : 0.137254901960784,
                      "fill-color-green" : 0.156862745098039,
                      "fill-color-opacity" : 1.0,
                      "fill-color-red" : 0.156862745098039,
                      "height" : 110.566037735883,
                      "line-spacing" : 0.0,
                      "stroke-color-blue" : 0.890196078431372,
                      "stroke-color-green" : 0.870588235294118,
                      "stroke-color-opacity" : 1.0,
                      "stroke-color-red" : 0.847058823529412,
                      "stroke-width" : 2.0,
                      "tail-x" : 329.037735848974,
                      "tail-y" : -99.716981132051,
                      "width" : 673.571587125328,
                      "word-wrap" : 1.0,
                      "fill-style" : "solid",
                      "horizontal-alignment" : "center",
                      "resize-behavior" : "resizeText",
                      "stroke-style" : "solid",
                      "text" : "Inline markup",
                      "vertical-alignment" : "center",
                      "font" : {
                        "color-blue" : 0.266666666666667,
                        "color-green" : 0.231372549019608,
                        "color-opacity" : 1.0,
                        "color-red" : 0.184313725490196,
                        "size" : 64.0,
                        "tracking" : 0.0,
                        "name" : "Montserrat",
                        "weight" : "Regular"
                      },
                      "textAttributes" : {
                        "type" : "textAttributeList",
                        "keyframes" : [
                          {
                            "endTime" : 0,
                            "time" : 0,
                            "value" : [{"name":"fontSize","rangeEnd":13,"rangeStart":0,"value":60,"valueType":"double"},{"name":"fontItalic","rangeEnd":13,"rangeStart":0,"value":0,"valueType":"int"},{"name":"fontName","rangeEnd":1,"rangeStart":0,"value":"Montserrat","valueType":"string"},{"name":"fontName","rangeEnd":13,"rangeStart":1,"value":"Source Han Sans JP","valueType":"string"},{"name":"fontWeight","rangeEnd":13,"rangeStart":0,"value":700,"valueType":"int"},{"name":"strikethrough","rangeEnd":13,"rangeStart":0,"value":0,"valueType":"int"},{"name":"underline","rangeEnd":13,"rangeStart":0,"value":0,"valueType":"int"},{"name":"fgColor","rangeEnd":13,"rangeStart":0,"value":"(248,248,241,255)","valueType":"color"},{"name":"kerning","rangeEnd":13,"rangeStart":0,"value":0,"valueType":"double"}],
                            "duration" : 0
                          }
                        ]
                      }
                    },
                    "attributes" : {
                      "autoRotateText" : true
                    },
                    "parameters" : {
                      "translation0" : -5.6843418860808e-14,
                      "translation1" : -182.773584905789,
                      "scale0" : 0.5,
                      "scale1" : 0.5,
                      "sourceCrop0" : 0.0,
                      "sourceCrop1" : 0.0,
                      "sourceCrop2" : 0.0,
                      "sourceCrop3" : 0.0,
                      "geometryCrop0" : 0.0,
                      "geometryCrop1" : 0.0,
                      "geometryCrop2" : 0.0,
                      "geometryCrop3" : 0.0
                    },
                    "effects" : [

                    ],
                    "start" : 0,
                    "duration" : 332,
                    "mediaStart" : 0,
                    "mediaDuration" : 332,
                    "scalar" : 1,
                    "metadata" : {
                      "WinSubProjectDisplayName" : "",
                      "clipSpeedAttribute" : false,
                      "default-HAlign" : "center",
                      "default-LineSpace" : 0.0,
                      "default-VAlign" : "center",
                      "default-height" : 68.5,
                      "default-text-attributes" : "[{\"name\":\"fontSize\",\"rangeEnd\":25,\"rangeStart\":0,\"value\":60,\"valueType\":\"double\"},{\"name\":\"underline\",\"rangeEnd\":25,\"rangeStart\":0,\"value\":0,\"valueType\":\"int\"},{\"name\":\"fgColor\",\"rangeEnd\":25,\"rangeStart\":0,\"value\":\"(248,248,241,255)\",\"valueType\":\"color\"},{\"name\":\"kerning\",\"rangeEnd\":25,\"rangeStart\":0,\"value\":0,\"valueType\":\"double\"},{\"name\":\"strikethrough\",\"rangeEnd\":25,\"rangeStart\":0,\"value\":0,\"valueType\":\"int\"},{\"name\":\"fontName\",\"rangeEnd\":25,\"rangeStart\":0,\"value\":\"Source Han Sans JP\",\"valueType\":\"string\"},{\"name\":\"fontItalic\",\"rangeEnd\":25,\"rangeStart\":0,\"value\":0,\"valueType\":\"int\"},{\"name\":\"fontWeight\",\"rangeEnd\":25,\"rangeStart\":0,\"value\":700,\"valueType\":\"int\"}]",
                      "default-translation0" : 3.35944605467375e-11,
                      "default-translation1" : -150.773584905789,
                      "default-width" : 350.0
                    },
                    "animationTracks" : {

                    }
                  },
                  {
                    "id" : 27,
                    "_type" : "Callout",
                    "def" : {
                      "kind" : "remix",
                      "shape" : "text-rectangle",
                      "style" : "basic",
                      "enable-ligatures" : 1.0,
                      "fill-color-blue" : 0.137254901960784,
                      "fill-color-green" : 0.156862745098039,
                      "fill-color-opacity" : 1.0,
                      "fill-color-red" : 0.156862745098039,
                      "height" : 110.566037735883,
                      "line-spacing" : 0.0,
                      "stroke-color-blue" : 0.890196078431372,
                      "stroke-color-green" : 0.870588235294118,
                      "stroke-color-opacity" : 1.0,
                      "stroke-color-red" : 0.847058823529412,
                      "stroke-width" : 2.0,
                      "tail-x" : 329.037735848974,
                      "tail-y" : -99.716981132051,
                      "width" : 673.571587125328,
                      "word-wrap" : 1.0,
                      "fill-style" : "solid",
                      "horizontal-alignment" : "center",
                      "resize-behavior" : "resizeText",
                      "stroke-style" : "solid",
                      "text" : "List",
                      "vertical-alignment" : "center",
                      "font" : {
                        "color-blue" : 0.266666666666667,
                        "color-green" : 0.231372549019608,
                        "color-opacity" : 1.0,
                        "color-red" : 0.184313725490196,
                        "size" : 64.0,
                        "tracking" : 0.0,
                        "name" : "Montserrat",
                        "weight" : "Regular"
                      },
                      "textAttributes" : {
                        "type" : "textAttributeList",
                        "keyframes" : [
                          {
                            "endTime" : 0,
                            "time" : 0,
                            "value" : [{"name":"fontItalic","rangeEnd":4,"rangeStart":0,"value":0,"valueType":"int"},{"name":"fontWeight","rangeEnd":4,"rangeStart":0,"value":700,"valueType":"int"},{"name":"kerning","rangeEnd":4,"rangeStart":0,"value":0,"valueType":"double"},{"name":"strikethrough","rangeEnd":4,"rangeStart":0,"value":0,"valueType":"int"},{"name":"fontName","rangeEnd":4,"rangeStart":0,"value":"Montserrat","valueType":"string"},{"name":"fgColor","rangeEnd":4,"rangeStart":0,"value":"(248,248,241,255)","valueType":"color"},{"name":"underline","rangeEnd":4,"rangeStart":0,"value":0,"valueType":"int"},{"name":"fontSize","rangeEnd":4,"rangeStart":0,"value":60,"valueType":"double"}],
                            "duration" : 0
                          }
                        ]
                      }
                    },
                    "attributes" : {
                      "autoRotateText" : true
                    },
                    "parameters" : {
                      "translation0" : -5.6843418860808e-14,
                      "translation1" : -182.773584905789,
                      "scale0" : 0.5,
                      "scale1" : 0.5,
                      "sourceCrop0" : 0.0,
                      "sourceCrop1" : 0.0,
                      "sourceCrop2" : 0.0,
                      "sourceCrop3" : 0.0,
                      "geometryCrop0" : 0.0,
                      "geometryCrop1" : 0.0,
                      "geometryCrop2" : 0.0,
                      "geometryCrop3" : 0.0
                    },
                    "effects" : [

                    ],
                    "start" : 332,
                    "duration" : 405,
                    "mediaStart" : 0,
                    "mediaDuration" : 405,
                    "scalar" : 1,
                    "metadata" : {
                      "WinSubProjectDisplayName" : "",
                      "clipSpeedAttribute" : false,
                      "default-HAlign" : "center",
                      "default-LineSpace" : 0.0,
                      "default-VAlign" : "center",
                      "default-height" : 68.5,
                      "default-text-attributes" : "[{\"name\":\"fontSize\",\"rangeEnd\":25,\"rangeStart\":0,\"value\":60,\"valueType\":\"double\"},{\"name\":\"underline\",\"rangeEnd\":25,\"rangeStart\":0,\"value\":0,\"valueType\":\"int\"},{\"name\":\"fgColor\",\"rangeEnd\":25,\"rangeStart\":0,\"value\":\"(248,248,241,255)\",\"valueType\":\"color\"},{\"name\":\"kerning\",\"rangeEnd\":25,\"rangeStart\":0,\"value\":0,\"valueType\":\"double\"},{\"name\":\"strikethrough\",\"rangeEnd\":25,\"rangeStart\":0,\"value\":0,\"valueType\":\"int\"},{\"name\":\"fontName\",\"rangeEnd\":25,\"rangeStart\":0,\"value\":\"Source Han Sans JP\",\"valueType\":\"string\"},{\"name\":\"fontItalic\",\"rangeEnd\":25,\"rangeStart\":0,\"value\":0,\"valueType\":\"int\"},{\"name\":\"fontWeight\",\"rangeEnd\":25,\"rangeStart\":0,\"value\":700,\"valueType\":\"int\"}]",
                      "default-translation0" : 3.35944605467375e-11,
                      "default-translation1" : -150.773584905789,
                      "default-width" : 350.0
                    },
                    "animationTracks" : {

                    }
                  },
                  {
                    "id" : 28,
                    "_type" : "Callout",
                    "def" : {
                      "kind" : "remix",
                      "shape" : "text-rectangle",
                      "style" : "basic",
                      "enable-ligatures" : 1.0,
                      "fill-color-blue" : 0.137254901960784,
                      "fill-color-green" : 0.156862745098039,
                      "fill-color-opacity" : 1.0,
                      "fill-color-red" : 0.156862745098039,
                      "height" : 110.566037735883,
                      "line-spacing" : 0.0,
                      "stroke-color-blue" : 0.890196078431372,
                      "stroke-color-green" : 0.870588235294118,
                      "stroke-color-opacity" : 1.0,
                      "stroke-color-red" : 0.847058823529412,
                      "stroke-width" : 2.0,
                      "tail-x" : 329.037735848974,
                      "tail-y" : -99.716981132051,
                      "width" : 673.571587125328,
                      "word-wrap" : 1.0,
                      "fill-style" : "solid",
                      "horizontal-alignment" : "center",
                      "resize-behavior" : "resizeText",
                      "stroke-style" : "solid",
                      "text" : "Table",
                      "vertical-alignment" : "center",
                      "font" : {
                        "color-blue" : 0.266666666666667,
                        "color-green" : 0.231372549019608,
                        "color-opacity" : 1.0,
                        "color-red" : 0.184313725490196,
                        "size" : 64.0,
                        "tracking" : 0.0,
                        "name" : "Montserrat",
                        "weight" : "Regular"
                      },
                      "textAttributes" : {
                        "type" : "textAttributeList",
                        "keyframes" : [
                          {
                            "endTime" : 0,
                            "time" : 0,
                            "value" : [{"name":"fgColor","rangeEnd":5,"rangeStart":0,"value":"(248,248,241,255)","valueType":"color"},{"name":"kerning","rangeEnd":5,"rangeStart":0,"value":0,"valueType":"double"},{"name":"fontSize","rangeEnd":5,"rangeStart":0,"value":60,"valueType":"double"},{"name":"fontWeight","rangeEnd":5,"rangeStart":0,"value":700,"valueType":"int"},{"name":"strikethrough","rangeEnd":5,"rangeStart":0,"value":0,"valueType":"int"},{"name":"underline","rangeEnd":5,"rangeStart":0,"value":0,"valueType":"int"},{"name":"fontItalic","rangeEnd":5,"rangeStart":0,"value":0,"valueType":"int"},{"name":"fontName","rangeEnd":5,"rangeStart":0,"value":"Montserrat","valueType":"string"}],
                            "duration" : 0
                          }
                        ]
                      }
                    },
                    "attributes" : {
                      "autoRotateText" : true
                    },
                    "parameters" : {
                      "translation0" : -5.6843418860808e-14,
                      "translation1" : -182.773584905789,
                      "scale0" : 0.5,
                      "scale1" : 0.5,
                      "sourceCrop0" : 0.0,
                      "sourceCrop1" : 0.0,
                      "sourceCrop2" : 0.0,
                      "sourceCrop3" : 0.0,
                      "geometryCrop0" : 0.0,
                      "geometryCrop1" : 0.0,
                      "geometryCrop2" : 0.0,
                      "geometryCrop3" : 0.0
                    },
                    "effects" : [

                    ],
                    "start" : 737,
                    "duration" : 582,
                    "mediaStart" : 0,
                    "mediaDuration" : 582,
                    "scalar" : 1,
                    "metadata" : {
                      "WinSubProjectDisplayName" : "",
                      "clipSpeedAttribute" : false,
                      "default-HAlign" : "center",
                      "default-LineSpace" : 0.0,
                      "default-VAlign" : "center",
                      "default-height" : 68.5,
                      "default-text-attributes" : "[{\"name\":\"fontSize\",\"rangeEnd\":25,\"rangeStart\":0,\"value\":60,\"valueType\":\"double\"},{\"name\":\"underline\",\"rangeEnd\":25,\"rangeStart\":0,\"value\":0,\"valueType\":\"int\"},{\"name\":\"fgColor\",\"rangeEnd\":25,\"rangeStart\":0,\"value\":\"(248,248,241,255)\",\"valueType\":\"color\"},{\"name\":\"kerning\",\"rangeEnd\":25,\"rangeStart\":0,\"value\":0,\"valueType\":\"double\"},{\"name\":\"strikethrough\",\"rangeEnd\":25,\"rangeStart\":0,\"value\":0,\"valueType\":\"int\"},{\"name\":\"fontName\",\"rangeEnd\":25,\"rangeStart\":0,\"value\":\"Source Han Sans JP\",\"valueType\":\"string\"},{\"name\":\"fontItalic\",\"rangeEnd\":25,\"rangeStart\":0,\"value\":0,\"valueType\":\"int\"},{\"name\":\"fontWeight\",\"rangeEnd\":25,\"rangeStart\":0,\"value\":700,\"valueType\":\"int\"}]",
                      "default-translation0" : 3.35944605467375e-11,
                      "default-translation1" : -150.773584905789,
                      "default-width" : 350.0
                    },
                    "animationTracks" : {

                    }
                  },
                  {
                    "id" : 29,
                    "_type" : "Callout",
                    "def" : {
                      "kind" : "remix",
                      "shape" : "text-rectangle",
                      "style" : "basic",
                      "enable-ligatures" : 1.0,
                      "fill-color-blue" : 0.137254901960784,
                      "fill-color-green" : 0.156862745098039,
                      "fill-color-opacity" : 1.0,
                      "fill-color-red" : 0.156862745098039,
                      "height" : 110.566037735883,
                      "line-spacing" : 0.0,
                      "stroke-color-blue" : 0.890196078431372,
                      "stroke-color-green" : 0.870588235294118,
                      "stroke-color-opacity" : 1.0,
                      "stroke-color-red" : 0.847058823529412,
                      "stroke-width" : 2.0,
                      "tail-x" : 329.037735848974,
                      "tail-y" : -99.716981132051,
                      "width" : 673.571587125328,
                      "word-wrap" : 1.0,
                      "fill-style" : "solid",
                      "horizontal-alignment" : "center",
                      "resize-behavior" : "resizeText",
                      "stroke-style" : "solid",
                      "text" : "HTML Preview",
                      "vertical-alignment" : "center",
                      "font" : {
                        "color-blue" : 0.266666666666667,
                        "color-green" : 0.231372549019608,
                        "color-opacity" : 1.0,
                        "color-red" : 0.184313725490196,
                        "size" : 64.0,
                        "tracking" : 0.0,
                        "name" : "Montserrat",
                        "weight" : "Regular"
                      },
                      "textAttributes" : {
                        "type" : "textAttributeList",
                        "keyframes" : [
                          {
                            "endTime" : 0,
                            "time" : 0,
                            "value" : [{"name":"fontSize","rangeEnd":12,"rangeStart":0,"value":60,"valueType":"double"},{"name":"fontName","rangeEnd":12,"rangeStart":0,"value":"Montserrat","valueType":"string"},{"name":"fontWeight","rangeEnd":12,"rangeStart":0,"value":700,"valueType":"int"},{"name":"strikethrough","rangeEnd":12,"rangeStart":0,"value":0,"valueType":"int"},{"name":"underline","rangeEnd":12,"rangeStart":0,"value":0,"valueType":"int"},{"name":"kerning","rangeEnd":12,"rangeStart":0,"value":0,"valueType":"double"},{"name":"fgColor","rangeEnd":12,"rangeStart":0,"value":"(248,248,241,255)","valueType":"color"},{"name":"fontItalic","rangeEnd":12,"rangeStart":0,"value":0,"valueType":"int"}],
                            "duration" : 0
                          }
                        ]
                      }
                    },
                    "attributes" : {
                      "autoRotateText" : true
                    },
                    "parameters" : {
                      "translation0" : -5.6843418860808e-14,
                      "translation1" : -182.773584905789,
                      "scale0" : 0.5,
                      "scale1" : 0.5,
                      "sourceCrop0" : 0.0,
                      "sourceCrop1" : 0.0,
                      "sourceCrop2" : 0.0,
                      "sourceCrop3" : 0.0,
                      "geometryCrop0" : 0.0,
                      "geometryCrop1" : 0.0,
                      "geometryCrop2" : 0.0,
                      "geometryCrop3" : 0.0
                    },
                    "effects" : [

                    ],
                    "start" : 1319,
                    "duration" : 263,
                    "mediaStart" : 0,
                    "mediaDuration" : 263,
                    "scalar" : 1,
                    "metadata" : {
                      "WinSubProjectDisplayName" : "",
                      "clipSpeedAttribute" : false,
                      "default-HAlign" : "center",
                      "default-LineSpace" : 0.0,
                      "default-VAlign" : "center",
                      "default-height" : 68.5,
                      "default-text-attributes" : "[{\"name\":\"fontSize\",\"rangeEnd\":25,\"rangeStart\":0,\"value\":60,\"valueType\":\"double\"},{\"name\":\"underline\",\"rangeEnd\":25,\"rangeStart\":0,\"value\":0,\"valueType\":\"int\"},{\"name\":\"fgColor\",\"rangeEnd\":25,\"rangeStart\":0,\"value\":\"(248,248,241,255)\",\"valueType\":\"color\"},{\"name\":\"kerning\",\"rangeEnd\":25,\"rangeStart\":0,\"value\":0,\"valueType\":\"double\"},{\"name\":\"strikethrough\",\"rangeEnd\":25,\"rangeStart\":0,\"value\":0,\"valueType\":\"int\"},{\"name\":\"fontName\",\"rangeEnd\":25,\"rangeStart\":0,\"value\":\"Source Han Sans JP\",\"valueType\":\"string\"},{\"name\":\"fontItalic\",\"rangeEnd\":25,\"rangeStart\":0,\"value\":0,\"valueType\":\"int\"},{\"name\":\"fontWeight\",\"rangeEnd\":25,\"rangeStart\":0,\"value\":700,\"valueType\":\"int\"}]",
                      "default-translation0" : 3.35944605467375e-11,
                      "default-translation1" : -150.773584905789,
                      "default-width" : 350.0
                    },
                    "animationTracks" : {

                    }
                  },
                  {
                    "id" : 30,
                    "_type" : "Callout",
                    "def" : {
                      "kind" : "remix",
                      "shape" : "text-rectangle",
                      "style" : "basic",
                      "enable-ligatures" : 1.0,
                      "fill-color-blue" : 0.137254901960784,
                      "fill-color-green" : 0.156862745098039,
                      "fill-color-opacity" : 1.0,
                      "fill-color-red" : 0.156862745098039,
                      "height" : 110.566037735883,
                      "line-spacing" : 0.0,
                      "stroke-color-blue" : 0.890196078431372,
                      "stroke-color-green" : 0.870588235294118,
                      "stroke-color-opacity" : 1.0,
                      "stroke-color-red" : 0.847058823529412,
                      "stroke-width" : 2.0,
                      "tail-x" : 329.037735848974,
                      "tail-y" : -99.716981132051,
                      "width" : 673.571587125328,
                      "word-wrap" : 1.0,
                      "fill-style" : "solid",
                      "horizontal-alignment" : "center",
                      "resize-behavior" : "resizeText",
                      "stroke-style" : "solid",
                      "text" : "Header",
                      "vertical-alignment" : "center",
                      "font" : {
                        "color-blue" : 0.266666666666667,
                        "color-green" : 0.231372549019608,
                        "color-opacity" : 1.0,
                        "color-red" : 0.184313725490196,
                        "size" : 64.0,
                        "tracking" : 0.0,
                        "name" : "Montserrat",
                        "weight" : "Regular"
                      },
                      "textAttributes" : {
                        "type" : "textAttributeList",
                        "keyframes" : [
                          {
                            "endTime" : 0,
                            "time" : 0,
                            "value" : [{"name":"fontItalic","rangeEnd":6,"rangeStart":0,"value":0,"valueType":"int"},{"name":"kerning","rangeEnd":6,"rangeStart":0,"value":0,"valueType":"double"},{"name":"fgColor","rangeEnd":6,"rangeStart":0,"value":"(248,248,241,255)","valueType":"color"},{"name":"fontWeight","rangeEnd":6,"rangeStart":0,"value":700,"valueType":"int"},{"name":"fontSize","rangeEnd":6,"rangeStart":0,"value":60,"valueType":"double"},{"name":"underline","rangeEnd":6,"rangeStart":0,"value":0,"valueType":"int"},{"name":"fontName","rangeEnd":6,"rangeStart":0,"value":"Montserrat","valueType":"string"},{"name":"strikethrough","rangeEnd":6,"rangeStart":0,"value":0,"valueType":"int"}],
                            "duration" : 0
                          }
                        ]
                      }
                    },
                    "attributes" : {
                      "autoRotateText" : true
                    },
                    "parameters" : {
                      "translation0" : -5.6843418860808e-14,
                      "translation1" : -182.773584905789,
                      "scale0" : 0.5,
                      "scale1" : 0.5,
                      "sourceCrop0" : 0.0,
                      "sourceCrop1" : 0.0,
                      "sourceCrop2" : 0.0,
                      "sourceCrop3" : 0.0,
                      "geometryCrop0" : 0.0,
                      "geometryCrop1" : 0.0,
                      "geometryCrop2" : 0.0,
                      "geometryCrop3" : 0.0
                    },
                    "effects" : [

                    ],
                    "start" : 1582,
                    "duration" : 152,
                    "mediaStart" : 0,
                    "mediaDuration" : 152,
                    "scalar" : 1,
                    "metadata" : {
                      "WinSubProjectDisplayName" : "",
                      "clipSpeedAttribute" : false,
                      "default-HAlign" : "center",
                      "default-LineSpace" : 0.0,
                      "default-VAlign" : "center",
                      "default-height" : 68.5,
                      "default-text-attributes" : "[{\"name\":\"fontSize\",\"rangeEnd\":25,\"rangeStart\":0,\"value\":60,\"valueType\":\"double\"},{\"name\":\"underline\",\"rangeEnd\":25,\"rangeStart\":0,\"value\":0,\"valueType\":\"int\"},{\"name\":\"fgColor\",\"rangeEnd\":25,\"rangeStart\":0,\"value\":\"(248,248,241,255)\",\"valueType\":\"color\"},{\"name\":\"kerning\",\"rangeEnd\":25,\"rangeStart\":0,\"value\":0,\"valueType\":\"double\"},{\"name\":\"strikethrough\",\"rangeEnd\":25,\"rangeStart\":0,\"value\":0,\"valueType\":\"int\"},{\"name\":\"fontName\",\"rangeEnd\":25,\"rangeStart\":0,\"value\":\"Source Han Sans JP\",\"valueType\":\"string\"},{\"name\":\"fontItalic\",\"rangeEnd\":25,\"rangeStart\":0,\"value\":0,\"valueType\":\"int\"},{\"name\":\"fontWeight\",\"rangeEnd\":25,\"rangeStart\":0,\"value\":700,\"valueType\":\"int\"}]",
                      "default-translation0" : 3.35944605467375e-11,
                      "default-translation1" : -150.773584905789,
                      "default-width" : 350.0
                    },
                    "animationTracks" : {

                    }
                  },
                  {
                    "id" : 31,
                    "_type" : "Callout",
                    "def" : {
                      "kind" : "remix",
                      "shape" : "text-rectangle",
                      "style" : "basic",
                      "enable-ligatures" : {
                        "type" : "double",
                        "defaultValue" : 1.0,
                        "interp" : "linr"
                      },
                      "fill-color-blue" : {
                        "type" : "double",
                        "defaultValue" : 0.137254901960784,
                        "interp" : "linr"
                      },
                      "fill-color-green" : {
                        "type" : "double",
                        "defaultValue" : 0.156862745098039,
                        "interp" : "linr"
                      },
                      "fill-color-opacity" : {
                        "type" : "double",
                        "defaultValue" : 1.0,
                        "interp" : "linr"
                      },
                      "fill-color-red" : {
                        "type" : "double",
                        "defaultValue" : 0.156862745098039,
                        "interp" : "linr"
                      },
                      "height" : {
                        "type" : "double",
                        "defaultValue" : 114.566037735883,
                        "interp" : "linr"
                      },
                      "line-spacing" : {
                        "type" : "double",
                        "defaultValue" : 0.0,
                        "interp" : "linr"
                      },
                      "stroke-color-blue" : {
                        "type" : "double",
                        "defaultValue" : 0.890196078431372,
                        "interp" : "linr"
                      },
                      "stroke-color-green" : {
                        "type" : "double",
                        "defaultValue" : 0.870588235294118,
                        "interp" : "linr"
                      },
                      "stroke-color-opacity" : {
                        "type" : "double",
                        "defaultValue" : 1.0,
                        "interp" : "linr"
                      },
                      "stroke-color-red" : {
                        "type" : "double",
                        "defaultValue" : 0.847058823529412,
                        "interp" : "linr"
                      },
                      "stroke-width" : {
                        "type" : "double",
                        "defaultValue" : 2.0,
                        "interp" : "linr"
                      },
                      "tail-x" : {
                        "type" : "double",
                        "defaultValue" : -36.9622641510259,
                        "interp" : "linr"
                      },
                      "tail-y" : {
                        "type" : "double",
                        "defaultValue" : -97.716981132051,
                        "interp" : "linr"
                      },
                      "width" : {
                        "type" : "double",
                        "defaultValue" : 857.571587125328,
                        "interp" : "linr"
                      },
                      "word-wrap" : {
                        "type" : "double",
                        "defaultValue" : 1.0,
                        "interp" : "linr"
                      },
                      "fill-style" : "solid",
                      "horizontal-alignment" : "center",
                      "resize-behavior" : "resizeText",
                      "stroke-style" : "solid",
                      "text" : "Insert relative paths into the editor",
                      "vertical-alignment" : "center",
                      "font" : {
                        "color-blue" : {
                          "type" : "double",
                          "defaultValue" : 0.266666666666667,
                          "interp" : "linr"
                        },
                        "color-green" : {
                          "type" : "double",
                          "defaultValue" : 0.231372549019608,
                          "interp" : "linr"
                        },
                        "color-opacity" : {
                          "type" : "double",
                          "defaultValue" : 1.0,
                          "interp" : "linr"
                        },
                        "color-red" : {
                          "type" : "double",
                          "defaultValue" : 0.184313725490196,
                          "interp" : "linr"
                        },
                        "size" : {
                          "type" : "double",
                          "defaultValue" : 64.0,
                          "interp" : "linr"
                        },
                        "tracking" : {
                          "type" : "double",
                          "defaultValue" : 0.0,
                          "interp" : "linr"
                        },
                        "name" : "Montserrat",
                        "weight" : "Regular"
                      },
                      "textAttributes" : {
                        "type" : "textAttributeList",
                        "keyframes" : [
                          {
                            "endTime" : 0,
                            "time" : 0,
                            "value" : [{"name":"fontSize","rangeEnd":37,"rangeStart":0,"value":60,"valueType":"double"},{"name":"fontWeight","rangeEnd":37,"rangeStart":0,"value":700,"valueType":"int"},{"name":"strikethrough","rangeEnd":37,"rangeStart":0,"value":0,"valueType":"int"},{"name":"underline","rangeEnd":37,"rangeStart":0,"value":0,"valueType":"int"},{"name":"kerning","rangeEnd":37,"rangeStart":0,"value":0,"valueType":"double"},{"name":"fgColor","rangeEnd":37,"rangeStart":0,"value":"(248,248,241,255)","valueType":"color"},{"name":"fontItalic","rangeEnd":37,"rangeStart":0,"value":0,"valueType":"int"},{"name":"fontName","rangeEnd":37,"rangeStart":0,"value":"Montserrat","valueType":"string"}],
                            "duration" : 0
                          }
                        ]
                      }
                    },
                    "attributes" : {
                      "autoRotateText" : true
                    },
                    "parameters" : {
                      "translation0" : {
                        "type" : "double",
                        "defaultValue" : 257.60710144043,
                        "interp" : "eioe"
                      },
                      "translation1" : {
                        "type" : "double",
                        "defaultValue" : -194.773584905789,
                        "interp" : "eioe"
                      },
                      "scale0" : {
                        "type" : "double",
                        "defaultValue" : 0.5,
                        "interp" : "eioe"
                      },
                      "scale1" : {
                        "type" : "double",
                        "defaultValue" : 0.5,
                        "interp" : "eioe"
                      },
                      "sourceCrop0" : {
                        "type" : "double",
                        "defaultValue" : 0.0,
                        "interp" : "eioe"
                      },
                      "sourceCrop1" : {
                        "type" : "double",
                        "defaultValue" : 0.0,
                        "interp" : "eioe"
                      },
                      "sourceCrop2" : {
                        "type" : "double",
                        "defaultValue" : 0.0,
                        "interp" : "eioe"
                      },
                      "sourceCrop3" : {
                        "type" : "double",
                        "defaultValue" : 0.0,
                        "interp" : "eioe"
                      },
                      "geometryCrop0" : {
                        "type" : "double",
                        "defaultValue" : 0.0,
                        "interp" : "eioe"
                      },
                      "geometryCrop1" : {
                        "type" : "double",
                        "defaultValue" : 0.0,
                        "interp" : "eioe"
                      },
                      "geometryCrop2" : {
                        "type" : "double",
                        "defaultValue" : 0.0,
                        "interp" : "eioe"
                      },
                      "geometryCrop3" : {
                        "type" : "double",
                        "defaultValue" : 0.0,
                        "interp" : "eioe"
                      }
                    },
                    "effects" : [

                    ],
                    "start" : 1734,
                    "duration" : 593,
                    "mediaStart" : 0,
                    "mediaDuration" : 593,
                    "scalar" : 1,
                    "metadata" : {
                      "WinSubProjectDisplayName" : "",
                      "clipSpeedAttribute" : false,
                      "default-HAlign" : "center",
                      "default-LineSpace" : 0.0,
                      "default-VAlign" : "center",
                      "default-height" : 68.5,
                      "default-text-attributes" : "[{\"name\":\"fontSize\",\"rangeEnd\":25,\"rangeStart\":0,\"value\":60,\"valueType\":\"double\"},{\"name\":\"underline\",\"rangeEnd\":25,\"rangeStart\":0,\"value\":0,\"valueType\":\"int\"},{\"name\":\"fgColor\",\"rangeEnd\":25,\"rangeStart\":0,\"value\":\"(248,248,241,255)\",\"valueType\":\"color\"},{\"name\":\"kerning\",\"rangeEnd\":25,\"rangeStart\":0,\"value\":0,\"valueType\":\"double\"},{\"name\":\"strikethrough\",\"rangeEnd\":25,\"rangeStart\":0,\"value\":0,\"valueType\":\"int\"},{\"name\":\"fontName\",\"rangeEnd\":25,\"rangeStart\":0,\"value\":\"Source Han Sans JP\",\"valueType\":\"string\"},{\"name\":\"fontItalic\",\"rangeEnd\":25,\"rangeStart\":0,\"value\":0,\"valueType\":\"int\"},{\"name\":\"fontWeight\",\"rangeEnd\":25,\"rangeStart\":0,\"value\":700,\"valueType\":\"int\"}]",
                      "default-translation0" : 3.35944605467375e-11,
                      "default-translation1" : -150.773584905789,
                      "default-width" : 350.0
                    },
                    "animationTracks" : {

                    }
                  },
                  {
                    "id" : 32,
                    "_type" : "Callout",
                    "def" : {
                      "kind" : "remix",
                      "shape" : "text-rectangle",
                      "style" : "basic",
                      "enable-ligatures" : 1.0,
                      "fill-color-blue" : 0.137254901960784,
                      "fill-color-green" : 0.156862745098039,
                      "fill-color-opacity" : 1.0,
                      "fill-color-red" : 0.156862745098039,
                      "height" : 110.566037735883,
                      "line-spacing" : 0.0,
                      "stroke-color-blue" : 0.890196078431372,
                      "stroke-color-green" : 0.870588235294118,
                      "stroke-color-opacity" : 1.0,
                      "stroke-color-red" : 0.847058823529412,
                      "stroke-width" : 2.0,
                      "tail-x" : 329.037735848974,
                      "tail-y" : -99.716981132051,
                      "width" : 673.571587125328,
                      "word-wrap" : 1.0,
                      "fill-style" : "solid",
                      "horizontal-alignment" : "center",
                      "resize-behavior" : "resizeText",
                      "stroke-style" : "solid",
                      "text" : "Snippets",
                      "vertical-alignment" : "center",
                      "font" : {
                        "color-blue" : 0.266666666666667,
                        "color-green" : 0.231372549019608,
                        "color-opacity" : 1.0,
                        "color-red" : 0.184313725490196,
                        "size" : 64.0,
                        "tracking" : 0.0,
                        "name" : "Montserrat",
                        "weight" : "Regular"
                      },
                      "textAttributes" : {
                        "type" : "textAttributeList",
                        "keyframes" : [
                          {
                            "endTime" : 0,
                            "time" : 0,
                            "value" : [{"name":"fontSize","rangeEnd":8,"rangeStart":0,"value":60,"valueType":"double"},{"name":"fontName","rangeEnd":8,"rangeStart":0,"value":"Montserrat","valueType":"string"},{"name":"fontItalic","rangeEnd":8,"rangeStart":0,"value":0,"valueType":"int"},{"name":"fontWeight","rangeEnd":8,"rangeStart":0,"value":700,"valueType":"int"},{"name":"strikethrough","rangeEnd":8,"rangeStart":0,"value":0,"valueType":"int"},{"name":"underline","rangeEnd":8,"rangeStart":0,"value":0,"valueType":"int"},{"name":"kerning","rangeEnd":8,"rangeStart":0,"value":0,"valueType":"double"},{"name":"fgColor","rangeEnd":8,"rangeStart":0,"value":"(248,248,241,255)","valueType":"color"}],
                            "duration" : 0
                          }
                        ]
                      }
                    },
                    "attributes" : {
                      "autoRotateText" : true
                    },
                    "parameters" : {
                      "translation0" : -5.6843418860808e-14,
                      "translation1" : -182.773584905789,
                      "scale0" : 0.5,
                      "scale1" : 0.5,
                      "sourceCrop0" : 0.0,
                      "sourceCrop1" : 0.0,
                      "sourceCrop2" : 0.0,
                      "sourceCrop3" : 0.0,
                      "geometryCrop0" : 0.0,
                      "geometryCrop1" : 0.0,
                      "geometryCrop2" : 0.0,
                      "geometryCrop3" : 0.0
                    },
                    "effects" : [

                    ],
                    "start" : 2327,
                    "duration" : 287,
                    "mediaStart" : 0,
                    "mediaDuration" : 287,
                    "scalar" : 1,
                    "metadata" : {
                      "WinSubProjectDisplayName" : "",
                      "clipSpeedAttribute" : false,
                      "default-HAlign" : "center",
                      "default-LineSpace" : 0.0,
                      "default-VAlign" : "center",
                      "default-height" : 68.5,
                      "default-text-attributes" : "[{\"name\":\"fontSize\",\"rangeEnd\":25,\"rangeStart\":0,\"value\":60,\"valueType\":\"double\"},{\"name\":\"underline\",\"rangeEnd\":25,\"rangeStart\":0,\"value\":0,\"valueType\":\"int\"},{\"name\":\"fgColor\",\"rangeEnd\":25,\"rangeStart\":0,\"value\":\"(248,248,241,255)\",\"valueType\":\"color\"},{\"name\":\"kerning\",\"rangeEnd\":25,\"rangeStart\":0,\"value\":0,\"valueType\":\"double\"},{\"name\":\"strikethrough\",\"rangeEnd\":25,\"rangeStart\":0,\"value\":0,\"valueType\":\"int\"},{\"name\":\"fontName\",\"rangeEnd\":25,\"rangeStart\":0,\"value\":\"Source Han Sans JP\",\"valueType\":\"string\"},{\"name\":\"fontItalic\",\"rangeEnd\":25,\"rangeStart\":0,\"value\":0,\"valueType\":\"int\"},{\"name\":\"fontWeight\",\"rangeEnd\":25,\"rangeStart\":0,\"value\":700,\"valueType\":\"int\"}]",
                      "default-translation0" : 3.35944605467375e-11,
                      "default-translation1" : -150.773584905789,
                      "default-width" : 350.0
                    },
                    "animationTracks" : {

                    }
                  },
                  {
                    "id" : 33,
                    "_type" : "Callout",
                    "def" : {
                      "kind" : "remix",
                      "shape" : "text-rectangle",
                      "style" : "basic",
                      "enable-ligatures" : 1.0,
                      "fill-color-blue" : 0.137254901960784,
                      "fill-color-green" : 0.156862745098039,
                      "fill-color-opacity" : 1.0,
                      "fill-color-red" : 0.156862745098039,
                      "height" : 110.566037735883,
                      "line-spacing" : 0.0,
                      "stroke-color-blue" : 0.890196078431372,
                      "stroke-color-green" : 0.870588235294118,
                      "stroke-color-opacity" : 1.0,
                      "stroke-color-red" : 0.847058823529412,
                      "stroke-width" : 2.0,
                      "tail-x" : 329.037735848974,
                      "tail-y" : -99.716981132051,
                      "width" : 673.571587125328,
                      "word-wrap" : 1.0,
                      "fill-style" : "solid",
                      "horizontal-alignment" : "center",
                      "resize-behavior" : "resizeText",
                      "stroke-style" : "solid",
                      "text" : "Syntax Highlight",
                      "vertical-alignment" : "center",
                      "font" : {
                        "color-blue" : 0.266666666666667,
                        "color-green" : 0.231372549019608,
                        "color-opacity" : 1.0,
                        "color-red" : 0.184313725490196,
                        "size" : 64.0,
                        "tracking" : 0.0,
                        "name" : "Montserrat",
                        "weight" : "Regular"
                      },
                      "textAttributes" : {
                        "type" : "textAttributeList",
                        "keyframes" : [
                          {
                            "endTime" : 0,
                            "time" : 0,
                            "value" : [{"name":"kerning","rangeEnd":16,"rangeStart":0,"value":0,"valueType":"double"},{"name":"fgColor","rangeEnd":16,"rangeStart":0,"value":"(248,248,241,255)","valueType":"color"},{"name":"underline","rangeEnd":16,"rangeStart":0,"value":0,"valueType":"int"},{"name":"strikethrough","rangeEnd":16,"rangeStart":0,"value":0,"valueType":"int"},{"name":"fontWeight","rangeEnd":16,"rangeStart":0,"value":700,"valueType":"int"},{"name":"fontItalic","rangeEnd":16,"rangeStart":0,"value":0,"valueType":"int"},{"name":"fontName","rangeEnd":16,"rangeStart":0,"value":"Montserrat","valueType":"string"},{"name":"fontSize","rangeEnd":16,"rangeStart":0,"value":60,"valueType":"double"}],
                            "duration" : 0
                          }
                        ]
                      }
                    },
                    "attributes" : {
                      "autoRotateText" : true
                    },
                    "parameters" : {
                      "translation0" : -5.6843418860808e-14,
                      "translation1" : -182.773584905789,
                      "scale0" : 0.5,
                      "scale1" : 0.5,
                      "sourceCrop0" : 0.0,
                      "sourceCrop1" : 0.0,
                      "sourceCrop2" : 0.0,
                      "sourceCrop3" : 0.0,
                      "geometryCrop0" : 0.0,
                      "geometryCrop1" : 0.0,
                      "geometryCrop2" : 0.0,
                      "geometryCrop3" : 0.0
                    },
                    "effects" : [

                    ],
                    "start" : 2614,
                    "duration" : 257,
                    "mediaStart" : 0,
                    "mediaDuration" : 257,
                    "scalar" : 1,
                    "metadata" : {
                      "WinSubProjectDisplayName" : "",
                      "clipSpeedAttribute" : false,
                      "default-HAlign" : "center",
                      "default-LineSpace" : 0.0,
                      "default-VAlign" : "center",
                      "default-height" : 68.5,
                      "default-text-attributes" : "[{\"name\":\"fontSize\",\"rangeEnd\":25,\"rangeStart\":0,\"value\":60,\"valueType\":\"double\"},{\"name\":\"underline\",\"rangeEnd\":25,\"rangeStart\":0,\"value\":0,\"valueType\":\"int\"},{\"name\":\"fgColor\",\"rangeEnd\":25,\"rangeStart\":0,\"value\":\"(248,248,241,255)\",\"valueType\":\"color\"},{\"name\":\"kerning\",\"rangeEnd\":25,\"rangeStart\":0,\"value\":0,\"valueType\":\"double\"},{\"name\":\"strikethrough\",\"rangeEnd\":25,\"rangeStart\":0,\"value\":0,\"valueType\":\"int\"},{\"name\":\"fontName\",\"rangeEnd\":25,\"rangeStart\":0,\"value\":\"Source Han Sans JP\",\"valueType\":\"string\"},{\"name\":\"fontItalic\",\"rangeEnd\":25,\"rangeStart\":0,\"value\":0,\"valueType\":\"int\"},{\"name\":\"fontWeight\",\"rangeEnd\":25,\"rangeStart\":0,\"value\":700,\"valueType\":\"int\"}]",
                      "default-translation0" : 3.35944605467375e-11,
                      "default-translation1" : -150.773584905789,
                      "default-width" : 350.0
                    },
                    "animationTracks" : {

                    }
                  }
                ]
              },
              {
                "trackIndex" : 2,
                "medias" : [
                ]
              },
              {
                "trackIndex" : 3,
                "medias" : [
                ]
              }            ]
          }
        }
      ]
    },
    "trackAttributes" : [
      {
        "ident" : "",
        "audioMuted" : false,
        "videoHidden" : false,
        "magnetic" : false,
        "matte" : 0,
        "solo" : false,
        "metadata" : {
          "IsLocked" : "False",
          "WinTrackHeight" : "56"
        }
      },
      {
        "ident" : "",
        "audioMuted" : false,
        "videoHidden" : false,
        "magnetic" : false,
        "matte" : 0,
        "solo" : false,
        "metadata" : {
          "IsLocked" : "False",
          "WinTrackHeight" : "56"
        }
      },
      {
        "ident" : "",
        "audioMuted" : false,
        "videoHidden" : false,
        "magnetic" : false,
        "matte" : 0,
        "solo" : false,
        "metadata" : {
          "IsLocked" : "False",
          "WinTrackHeight" : "56"
        }
      },
      {
        "ident" : "",
        "audioMuted" : false,
        "videoHidden" : false,
        "magnetic" : false,
        "matte" : 0,
        "solo" : false,
        "metadata" : {
          "IsLocked" : "False",
          "WinTrackHeight" : "56"
        }
      }
    ],
    "captionAttributes" : {
      "enabled" : true,
      "fontName" : "ＭＳ Ｐゴシック",
      "fontSize" : 32,
      "backgroundColor" : [ 0, 0, 0, 191],
      "foregroundColor" : [ 255, 255, 255, 255],
      "lang" : "en",
      "alignment" : 0,
      "defaultFontSize" : true,
      "opacity" : 0.5,
      "backgroundEnabled" : true,
      "backgroundOnlyAroundText" : true
    },
    "gain" : 1.0,
    "legacyAttenuateAudioMix" : false,
    "backgroundColor" : [ 0, 0, 0, 255]
  },
  "metadata" : {
    "AutoSaveFile" : "C:\\Users\\tnaka\\AppData\\Local\\TechSmith\\Camtasia Studio\\21.0\\Auto-Saves\\all1301eac.autosave.tscproj",
    "CanvasZoom" : 100,
    "Date" : "2021年07月15日 午前 02:00:09",
    "IsAutoSave" : false,
    "IsStandalone" : true,
    "Language" : "JPN",
    "ProfileName" : "",
    "ProjectDimensionsChanged" : "1",
    "Title" : "all",
    "audioNarrationNotes" : "",
    "calloutStyle" : "Basic"
  }
}
