<svg id="languageDark" xmlns="http://www.w3.org/2000/svg" viewBox="0 0 16 16"><defs><style>.cls-1{fill:#e6e6e6;}</style></defs><path class="cls-1" d="M1.59,6.7c0-1,0-1.69-.06-2.35h1.6l.06,1.39h.06a2.19,2.19,0,0,1,2-1.56,1.88,1.88,0,0,1,.43.05V6a2.53,2.53,0,0,0-.54-.06A1.63,1.63,0,0,0,3.49,7.3a3.22,3.22,0,0,0-.06.57v3.78H1.59Z"/><path class="cls-1" d="M7.11,8.52a2,2,0,0,0,2.25,1.89,5.46,5.46,0,0,0,2-.33l.27,1.27a6.78,6.78,0,0,1-2.55.45A3.45,3.45,0,0,1,5.34,8.11c0-2,1.23-3.93,3.57-3.93s3.15,2,3.15,3.56a4.64,4.64,0,0,1-.06.78Zm3.21-1.29A1.58,1.58,0,0,0,8.8,5.44,1.8,1.8,0,0,0,7.11,7.23Z"/><path class="cls-1" d="M12.19,5.59a1.14,1.14,0,1,1,2.28,0,1.14,1.14,0,1,1-2.28,0Zm0,5.06a1.13,1.13,0,0,1,1.14-1.19,1.11,1.11,0,0,1,1.14,1.19,1.11,1.11,0,0,1-1.14,1.17A1.12,1.12,0,0,1,12.19,10.65Z"/></svg>